<svg xmlns="http://www.w3.org/2000/svg" width="16" height="16" viewBox="0 0 16 16" fill="none">
    <mask id="mask0_3094_11733" x="2" y="2" style="mask-type: alpha" maskUnits="userSpaceOnUse" width="12" height="12">
        <path
            fill-rule="evenodd"
            clip-rule="evenodd"
            d="M10.8431 4.90951C9.19568 3.3909 6.62854 3.4311 5.0297 5.03011C3.38946 6.67052 3.38946 9.32973 5.0297 10.9701C6.66933 12.6099 9.32887 12.6099 10.9691 10.9701C11.3201 10.6185 11.89 10.6185 12.2416 10.9701C12.5931 11.3211 12.5931 11.8911 12.2416 12.2427C9.89881 14.5858 6.09999 14.5858 3.75662 12.2427C1.41446 9.89973 1.41446 6.10051 3.75662 3.7575C6.05859 1.45529 9.76562 1.41509 12.1168 3.6357L12.9759 2.7771C13.3539 2.3991 14 2.6667 14 3.2013V6.20131C14 6.53252 13.7312 6.80132 13.4001 6.80132H10.4004C9.86581 6.80132 9.59824 6.15511 9.9762 5.77711L10.8431 4.90951Z"
            fill="black"
        />
    </mask>
    <g mask="url(#mask0_3094_11733)">
        <rect y="0.333328" width="16" height="16" fill="#126DF7" />
    </g>
</svg>
