<svg xmlns="http://www.w3.org/2000/svg" width="24" height="24" viewBox="0 0 24 24" fill="none">
    <mask id="mask0_3094_11632" x="0" y="0" style="mask-type: alpha" maskUnits="userSpaceOnUse" width="24" height="24">
        <path
            fill-rule="evenodd"
            clip-rule="evenodd"
            d="M10.9999 11.2868V19C12.1045 19 12.9999 18.1046 12.9999 17V11.2825L18.1301 5.05294L5.8722 5.01229L10.9999 11.2868ZM3.28227 5.0037L8.99992 12V21H10.9999C13.209 21 14.9999 19.2092 14.9999 17V12L21.9884 3.51388C21.9952 3.50571 22.0025 3.49806 22.0099 3.49043L22.0127 3.48752C22.1628 3.33151 22.0538 3.06521 21.8315 3.06521L2.16847 3C1.9463 3 1.8373 3.26592 1.98693 3.42197C1.98789 3.42297 1.98885 3.42397 1.98981 3.42496C1.99735 3.4328 2.0049 3.44067 2.01178 3.44908M3.28227 5.0037L2.16635 3.63822L3.28227 5.0037Z"
            fill="black"
        />
    </mask>
    <g mask="url(#mask0_3094_11632)">
        <rect width="24" height="24" fill="#126DF7" />
    </g>
</svg>
