<svg xmlns="http://www.w3.org/2000/svg" width="16" height="17" viewBox="0 0 16 17" fill="none">
    <mask id="mask0_2602_4650" x="0" y="0" style="mask-type: alpha" maskUnits="userSpaceOnUse" width="16" height="17">
        <path
            fill-rule="evenodd"
            clip-rule="evenodd"
            d="M8 1.5C4.13401 1.5 1 4.63401 1 8.5C1 12.366 4.13401 15.5 8 15.5C11.866 15.5 15 12.366 15 8.5C15 4.63401 11.866 1.5 8 1.5ZM9.00127 9.84192L9 9.84202V10.5H7V10C7 8.67876 7.51359 8.43097 8.08414 8.15571C8.1289 8.13411 8.17401 8.11327 8.21925 8.09237C8.47027 7.9764 8.72529 7.85858 8.94666 7.6C9.77623 6.7864 9.15 5.5 8.10018 5.50784C7.87118 5.48937 7.64153 5.53456 7.4366 5.63842C7.23168 5.74229 7.05945 5.90078 6.93895 6.09639C6.8917 6.17309 6.85313 6.25433 6.82366 6.3386C6.77801 6.46913 6.75419 6.60733 6.75379 6.74685L4.75 6.7418C4.75305 5.53226 5.45184 4.39789 6.53072 3.85108C7.06515 3.58021 7.66406 3.46235 8.26128 3.51052C9.92297 3.64455 11.2866 5.06669 11.3 6.75C11.3109 8.12026 10.2663 9.43223 9.00127 9.84192ZM7 13.5H8.3C8.6866 13.5 9 13.1866 9 12.8V11.5H7.7C7.3134 11.5 7 11.8134 7 12.2V13.5Z"
            fill="url(#paint0_linear_2602_4650)"
        />
    </mask>
    <g mask="url(#mask0_2602_4650)">
        <path d="M0 0.5H16V16.5H0V0.5Z" fill="black" fill-opacity="0.4" />
    </g>
    <defs>
        <linearGradient
            id="paint0_linear_2602_4650"
            x1="2.90909"
            y1="3.40909"
            x2="13.0909"
            y2="13.5909"
            gradientUnits="userSpaceOnUse"
        >
            <stop stop-opacity="0.95" />
            <stop offset="1" stop-opacity="0.65" />
        </linearGradient>
    </defs>
</svg>
